<?xml version="1.0" encoding="UTF-8"?>
<svg version="1.1" viewBox="0 0 1800 1800" width="1280" height="1280" xmlns="http://www.w3.org/2000/svg">
<path transform="translate(715,140)" d="m0 0h10l3 2-1 4-5 1-14 1-9 3-2 1 17 2 14 5 7 1 12-6 6-1h16l14 4 16 8 10 7 2 4-1 1-7-1-17-10-13-5 5 4 14 10 9 11 9 15 7 15 8 22 4 6 6 10 1 10-4 10-6 8-9 8-5 3-9 14-12 14-14 12-15 10-5 3 1 9 5 17 5 10 7 9 3 1h10l6 4 12 14 25 12 18 10 12 8 13 10 12 11 11 14 10 17 15 29 16 34 13 30 16 38 5 11 24-3 238-34 6-2 11-13 9-11 4-3 8 1 8 4 10 9 4 6 9-1 79-11 20-4 6-3 6-9 5-8 11-3-3-13-4-2-5-6-2-7v-8l4-6 4-1 6 5 3 7 1 9-2 5 1 6 2 10 32-7-1-6-4-6-6-3-4-6-1-3v-8l3-6 4-3h6l7 6 3 8-1 8-3 5 2 9 1 4 31-7v-4l-4-8-6-9-2-6v-7l4-7h5l5 6 3 8v9l-1 1v7l2 9 14-3h9l4 5 25 76 1 10-4 5-8 2h-6l4 10 5 5 4 6 1 3v8l-5 8h-6l-7-8-2-11 3-7-1-7-1-6-31 3v4l6 12 3 5 1 4v11l-3 4-6-1-6-12v-11l1-1-1-8-1-6-32 3-5 1 3 10 1 3 6 2 5 7 1 3v8l-4 7-3 2h-6l-6-4-4-8v-8l3-5 2-5-3-8v-4l-19 1-24-13h-8l-29 6-31 6-5 3-12 9-11 13-5 4-5 1-13 1-9 4-8 7-11 8-9 3h-9l-4-1h-7l-19 7-29 14-15 8-16 8-5 3-1 16-3 6-7 5-13-4-6 2-15 15-8 3h-8l-7-2-7 8-7 7-11 7-9 3-6 1h-10l-17-1-12 5-29 15-3 7-6 15-8 13-12 13-9 8-8 4-1 2 16 4 43 13 45 14 28 9 37 10 36 12 21 8 20 9 17 9 12 8 13 11 6 8 4 8 1 9-2 17-5 26-9 38-16 59-17 59-16 53-13 43-21 67-14 45-10 31-25 76-2 3-15 3 8 16 10 15 13 17 12 13 12 12 15 11 24 15 16 12 8 9 4 11 1 12-5 4h-11l-33-5-75-13-63-12-12-3h-4l12 9 8 11 3 9 24 1 49 1 81 3 46 3 23 3 1 4-7 2-31 3-58 3-56 2-99 2-105 1h-103l-107-1-91-2-61-2-57-3-31-3-9-2v-3l6-2 21-2 9-54 13-81 16-100 17-105 15-94 10-61 1-6-8-1-1-1v-34h-11l-1-1v-26l-11-8-4-8v-25l4-8 6-5 1-2-6-2-6-4-6-5-7-10-4-10-2-8-1-19-18-4-9-4-11-6-13-12-7-7-11-16-9-16-7-16-7-19-8-29-6-29-5-33-3-29-2-38v-47l2-28 4-28 6-25 7-19 10-19-2-4-5-5-4-6-2-6v-11l4-12 7-12 8-10 14-15 8-7 15-12 20-14 23-14 22-12 25-11 21-7 23-5 26-3h27l18 1h19l11-9 3-2 16-1 2-6 1-8v-18l-9-2-12-3-13-5-13-8-10-9-7-8-3-6-1-8 3-15 8-20 11-21 11-18 6-10 3-7 5-4-1-4-6-12v-13l5-13 8-14 9-11 11-9 11-5zm797 407-3 3 1 5 3 3 6-2 1-1-1-7-1-1zm-35 8-3 3-1 4 3 4h6l3-4-1-5-2-2zm-37 7-4 4 2 6 7-1 1-5-4-4zm93 42-2 2 1 6 2 2 5-1 2-1 1-5-2-3zm-34 3-3 4 1 6 5 1 5-5-2-4-3-2zm-42 7-4 3v5l3 2h5l2-2v-6l-3-2zm-481 459-5 62-7 90-4 39-7 58-7 61-1 14 2-2 6-20 10-37 26-88 20-66 10-32v-5l-3 2h-3l3-14 11-28 10-21-1-3-57-10zm-195 72m238 0m-460 32-5 26-25 151-10 60-24 145-19 114v4h18l54-2 3-1 3-19 18-137 11-85 11-84 19-145 3-21v-6zm187-1-69 1 1 16 14 131 23 213 14 131 2 3h43l1-1 2-16 6-20 9-24 1-9-2-19-1-1h-34l-1-6v-40l3-62 5-78 3-43v-12l-16-156-1-7zm-101 2-7 49-14 103-11 82-14 102-10 74-10 73-1 12h41l52-1 32-1-1-14-26-230-21-186-7-61-1-2zm283 353-1 1-5 31v5h-12l6 7 8 9 3-1 21-35 4-8v-3l-13-3z" fill="#4E4E4C"/>
<path transform="translate(715,140)" d="m0 0h10l3 2-1 4-5 1-14 1-9 3-2 1 17 2 14 5 7 1 12-6 6-1h16l14 4 16 8 10 7 2 4-1 1-7-1-17-10-13-5 5 4 14 10 9 11 9 15 7 15 8 22 4 6 6 10 1 10-4 10-6 8-9 8-5 3-9 14-12 14-14 12-15 10-5 3 1 9 5 17 5 10 7 9 3 1h10l6 4 12 14 25 12 18 10 12 8 13 10 12 11 11 14 10 17 15 29 16 34 13 30 16 38 5 11 24-3 238-34 6-2 11-13 9-11 4-3 8 1 8 4 10 9 4 6 9-1 79-11 20-4 6-3 6-9 5-8 11-3-3-13-4-2-5-6-2-7v-8l4-6 4-1 6 5 3 7 1 9-2 5 1 6 2 10 32-7-1-6-4-6-6-3-4-6-1-3v-8l3-6 4-3h6l7 6 3 8-1 8-3 5 2 9 1 4 31-7v-4l-4-8-6-9-2-6v-7l4-7h5l5 6 3 8v9l-1 1v7l2 9 14-3h9l4 5 25 76 1 10-4 5-8 2h-6l4 10 5 5 4 6 1 3v8l-5 8h-6l-7-8-2-11 3-7-1-7-1-6-31 3v4l6 12 3 5 1 4v11l-3 4-6-1-6-12v-11l1-1-1-8-1-6-32 3-5 1 3 10 1 3 6 2 5 7 1 3v8l-4 7-3 2h-6l-6-4-4-8v-8l3-5 2-5-3-8v-4l-19 1-24-13h-8l-29 6-31 6-5 3-12 9-11 13-5 4-5 1-13 1-9 4-8 7-11 8-9 3h-9l-4-1h-7l-19 7-29 14-15 8-16 8-5 3-1 16-3 6-7 5-13-4-6 2-15 15-8 3h-8l-7-2-7 8-7 7-11 7-9 3-6 1h-10l-17-1-12 5-29 15-3 7-6 15-8 13-8 9-18 9-13 3-19 2h-21l-86-5h-64l-23 3-23 7-19 9-22 14-16 12-13 10-11 9-24 18-14 9-16 8-15 6-17 5-20 3h-11l-15-3-16-7-13-9-15-15-7-10-8-14-8-16-8-21-6-20-8-32-6-38-4-40-1-18-1-36v-15l2-37 4-29 7-32 2-5-1-4-2-1v-2l-4-2-5-5-4-5-3-8v-11l4-12 7-12 8-10 14-15 8-7 15-12 20-14 23-14 22-12 25-11 21-7 23-5 26-3h27l18 1h19l11-9 3-2 16-1 2-6 1-8v-18l-9-2-12-3-13-5-13-8-10-9-7-8-3-6-1-8 3-15 8-20 11-21 11-18 6-10 3-7 5-4-1-4-6-12v-13l5-13 8-14 9-11 11-9 11-5zm797 407-3 3 1 5 3 3 6-2 1-1-1-7-1-1zm-35 8-3 3-1 4 3 4h6l3-4-1-5-2-2zm-37 7-4 4 2 6 7-1 1-5-4-4zm93 42-2 2 1 6 2 2 5-1 2-1 1-5-2-3zm-34 3-3 4 1 6 5 1 5-5-2-4-3-2zm-42 7-4 3v5l3 2h5l2-2v-6l-3-2z" fill="#AF593E"/>
<path transform="translate(715,140)" d="m0 0h10l3 2-1 4-5 1-14 1-9 3-2 1 17 2 14 5 7 1 12-6 6-1h16l14 4 16 8 10 7 2 4-1 1-7-1-17-10-13-5 5 4 14 10 9 11 9 15 7 15 8 22 4 6 6 10 1 10-4 10-6 8-9 8-5 3-9 14-12 14-14 12-15 10-5 3 1 9 5 17 5 10 7 9 3 1h10l6 4 12 14 25 12 18 10 12 8 13 10 12 11 11 14 10 17 15 29 16 34 13 30 16 38 5 12-13 2-4-4-11-29-8-18-9-16-8-10-7-7-14-9-14-5-14-2h-11l-26 5-30 9-53 18-8 2 7 3 7 8 1 2v8l-2 5-7-1-7-4h-12l-14 4-13 7-13 10-3 1-2 4h-2l-2 4-10 11-7 12-1 9 3 4h9l11-3h5l2 3-4 3-16 6h-13l-6-3-6-7-5-3-5-1h-21l-4-2v-3l-12 2-10 2h-18l-12-2-10-4-12-8-10-8-13-10-14-6-10-2-32-3-20-4-15-5-23-12-9-7-4-3v-2l-4-2-5-5-4-5-3-8v-11l4-12 7-12 8-10 14-15 8-7 15-12 20-14 23-14 22-12 25-11 21-7 23-5 26-3h27l18 1h19l11-9 3-2 16-1 2-6 1-8v-18l-9-2-12-3-13-5-13-8-10-9-7-8-3-6-1-8 3-15 8-20 11-21 11-18 6-10 3-7 5-4-1-4-6-12v-13l5-13 8-14 9-11 11-9 11-5z" fill="#E8EDF0"/>
<path transform="translate(724,1058)" d="m0 0 54 1 11 2-1 17-5 66-3 33-9 114-5 49h-1l-16-156v-7h-72l4 35 29 269 19 177 1 10 1 2h44l4 8 8 3 13 2 38 2h66l64-2 37-2 7-2v-7h24l49 1 81 3 46 3 23 3 1 4-7 2-31 3-58 3-56 2-99 2-105 1h-103l-107-1-91-2-61-2-57-3-31-3-9-2v-3l6-2 21-2 9-54 13-81 16-100 17-105 15-94 10-61 1-6-8-1-1-1v-34h-11l-1-1v-26l-11-8-4-8v-25l4-8 6-5 8 1 10 2 8 1h46l84-5zm57 87m-222 32-5 26-25 151-10 60-24 145-19 114v4h18l54-2 3-1 3-19 18-137 11-85 11-84 19-145 3-21v-6zm86 1-7 49-14 103-11 82-14 102-10 74-10 73-1 12h41l52-1 32-1-1-14-26-230-21-186-7-61-1-2z" fill="#829CAD"/>
<path transform="translate(1496,492)" d="m0 0h5l5 6 3 8v9l-1 1v7l2 9 14-3h9l4 5 25 76 1 10-4 5-8 2h-6l4 10 5 5 4 6 1 3v8l-5 8h-6l-7-8-2-11 3-7-1-7-1-6-31 3v4l6 12 3 5 1 4v11l-3 4-6-1-6-12v-11l1-1-1-8-1-6-32 3-5 1 3 10 1 3 6 2 5 7 1 3v8l-4 7-3 2h-6l-6-4-4-8v-8l3-5 2-5-3-8v-4l-19 1-24-13h-8l-29 6-31 6-2-1 3-5-1-7-4-6-17-12-6-3h-9l-4 3 1 6 4 4-1 5-3 2-7 1-22-18-10-5-4-1h-8l-8 7-8 3-8 2-4 3 1 4 3 7-12 4-1 2v8l5 11v7l-6 3-26 6-47 9-24 4-65 13-17 3-37 7-16 3-15 4-16 2-36 7-9 1-13 3-33 6-12 2-6 2-8 10-12 9-12 6-8 2h-20l-11-3-16-9-5-5-6-7-7-14-4-19 6 1 20 9 8 7 3 5 2 5 3 12 1 2h6l6-5 1-2v-8l-5-17v-3h2l9 15 7 12 6 5h6l3-4h7l5 1 8-6 2-17 3 1 5 10v2l7-2 4-14v-11l-2-12-6-9-11-9-5-4v-2l20-8 9-7 2-10-24-1-19-3-15-4-12-5-20-11-28-16 1-7v-8l-4-6-6-5-9-1v-1l19-5 56-19 26-7 21-4h11l14 2 16 6 14 10 9 9 7 10 11 21 12 31 4 10 3 1 274-39 6-2 11-13 9-11 4-3 8 1 8 4 10 9 4 6 9-1 79-11 20-4 6-3 6-9 5-8 11-3-3-13-4-2-5-6-2-7v-8l4-6 4-1 6 5 3 7 1 9-2 5 1 6 2 10 32-7-1-6-4-6-6-3-4-6-1-3v-8l3-6 4-3h6l7 6 3 8-1 8-3 5 2 9 1 4 31-7v-4l-4-8-6-9-2-6v-7zm16 55-3 3 1 5 3 3 6-2 1-1-1-7-1-1zm-35 8-3 3-1 4 3 4h6l3-4-1-5-2-2zm-37 7-4 4 2 6 7-1 1-5-4-4zm93 42-2 2 1 6 2 2 5-1 2-1 1-5-2-3zm-34 3-3 4 1 6 5 1 5-5-2-4-3-2zm-42 7-4 3v5l3 2h5l2-2v-6l-3-2z" fill="#943E1A"/>
<path transform="translate(724,1058)" d="m0 0 54 1 11 2-1 17-5 66-3 33-9 114-5 49h-1l-16-156v-7h-72v4l-15-3h-6l-2 7-4 1-2 3-1-11h-2l-1 12-11 81-11 82-15 110-7 51-10 74-10 73-2 12h10v1h-10l-1 5-11 1-14-1-4-4 3-1 2-19 18-137 11-85 11-84 19-145 4-27h-57v-1h48l-1-2v-29l-9-4-1-3v-23h-88l-11-8-4-8v-25l4-8 6-5 8 1 10 2 8 1h46l84-5z" fill="#99B1CC"/>
<path transform="translate(715,140)" d="m0 0h10l3 2-1 4-5 1-14 1-9 3-2 1 17 2 14 5 7 1 12-6 6-1h16l14 4 16 8 10 7 2 4-1 1-7-1-17-10-13-5 5 4 14 10 9 11 9 15 7 15 8 22 4 6 6 10 1 10-4 10-6 8-9 8-5 3-9 14-12 14-14 12-15 10-5 3 1 9 5 17 5 10 7 9 5 4h8l2 5-1 5-8 6-17 9-17 7-13 4-14-2-16-4-28-8-5-3-5-1 3-5 5-3 6-2 3-5 2-12v-18l-9-2-12-3-13-5-13-8-10-9-7-8-3-6-1-8 3-15 8-20 11-21 11-18 6-10 3-7 5-4-1-4-6-12v-13l5-13 8-14 9-11 11-9 11-5z" fill="#E59167"/>
<path transform="translate(1059,1539)" d="m0 0h10l7 3 11 17 13 17 12 13 12 12 15 11 24 15 16 12 8 9 4 11 1 12-5 4h-11l-33-5-75-13-63-12-12-3h-4l12 9 8 11 4 12-1 5-7 3-62 3-39 1h-66l-38-2-17-3-5-3-3-6v-13l5-19 11-30 2-2 39 13 12 3h17l6-4 7-10 8-16 6-9 8-9 12-7 4 1 8 8 4 5h2l12-20 6-9 6 2 13 8 18 10 17 7 3 1h10l7-4 10-12 9-11 8-8 11-7z" fill="#4E4E4C"/>
<path transform="translate(1260,598)" d="m0 0h8l11 4 8 6 13 11 4 3 7-1 3-2-1-5-4-5 1-5 4-3h9l11 6 13 10 4 6 1 7-4 6-7 6-9 7-9 11-6 5-5 1-13 1-9 4-8 7-11 8-9 3h-9l-4-1h-7l-19 7-29 14-15 8-16 8-5 3-1 16-3 6-7 5-13-4-6 2-15 15-8 3h-8l-7-2-7 8-7 7-11 7-9 3-6 1h-10l-17-1-12 5-29 15h-1v-7l1-2 1-14v-24l-3-33-3-20-1-6 9-3 18-3 28-6 21-4 23-4 55-11 35-6 45-9 15-4 3-1-2-10-4-8v-8l3-4 10-2-4-8 1-4 6-4 12-3 6-4z" fill="#E8EDF0"/>
<path transform="translate(729,591)" d="m0 0h12l9 5 5 1v2l5 2 22 12 14 8 16 8 13 4 15 3 9 1 20 1 4 1v8l-5 6-8 5-16 6h-2l5 5 13 11 5 8 2 12v11l-4 14-2 2h-6l-6-12-2-1v10l-1 7-9 7-5-1h-7l-3 4h-6l-8-7-11-20-3-4v-2h-2l6 20v8l-5 6-3 2h-6l-4-9-2-7-3-7-5-6-16-8-11-5-9-5-11-11-7-10-10-10-7-5-8-4-1-1-7 1-9 2h-9l-4-5 1-9 8-13 11-12 5-6 13-10 14-8 11-4z" fill="#E59167"/>
<path transform="translate(1496,492)" d="m0 0h5l5 6 3 8v9l-1 1v7l2 9 14-3h9l4 5 25 76 1 10-4 5-8 2h-6l4 10 5 5 4 6 1 3v8l-5 8h-6l-7-8-2-11 3-7-1-7-1-6-31 3v4l6 12 3 5 1 4v11l-3 4-6-1-6-12v-11l1-1-1-8-1-6-32 3-5 1 3 10 1 3 6 2 5 7 1 3v8l-4 7-3 2h-6l-6-4-4-8v-8l3-5 2-5-3-8v-4l-19 1-24-13h-8l-14 3-4-1-4-10-8-27v-10l5-1 3-3 14-3 6-3 6-9 5-8 11-3-3-13-4-2-5-6-2-7v-8l4-6 4-1 6 5 3 7 1 9-2 5 1 6 2 10 32-7-1-6-4-6-6-3-4-6-1-3v-8l3-6 4-3h6l7 6 3 8-1 8-3 5 2 9 1 4 31-7v-4l-4-8-6-9-2-6v-7zm16 55-3 3 1 5 3 3 6-2 1-1-1-7-1-1zm-35 8-3 3-1 4 3 4h6l3-4-1-5-2-2zm-37 7-4 4 2 6 7-1 1-5-4-4zm93 42-2 2 1 6 2 2 5-1 2-1 1-5-2-3zm-34 3-3 4 1 6 5 1 5-5-2-4-3-2zm-42 7-4 3v5l3 2h5l2-2v-6l-3-2z" fill="#050604"/>
<path transform="translate(715,140)" d="m0 0h10l3 2-1 4-5 1-14 1-9 3-2 1 17 2 14 5 7 1 12-6 6-1h16l14 4 16 8 10 7 2 4-1 1-7-1-17-10-13-5 5 4 14 10 9 11 9 15 7 15 8 22 4 6 6 10 1 10-4 10-6 8-9 8-5 3-9 14-12 14-14 12-15 10-5 3h-2l-1-10 15-8 5-5 3-7 1-12-2-5-5-4-6-1-13 4h-8v-8l5-22 1-5-9-11-10-12-10-14-7-9-12-9-6-2h-10l-9 7-10 8-4-1-6-12v-13l5-13 8-14 9-11 11-9 11-5z" fill="#842C2D"/>
<path transform="translate(859,536)" d="m0 0h11l14 2 16 6 14 10 9 9 7 10 11 21 12 31 4 10 2 2-2 1-54 7-30 5-3 3-2-1 4-5 1-8-24-1-19-3-15-4-12-5-20-11-28-16 1-7v-8l-4-6-6-5-9-1v-1l19-5 56-19 26-7z" fill="#B05A3F"/>
<path transform="translate(724,1058)" d="m0 0 54 1 11 2-1 17-3 36-14 1h-263l-11-8-4-8v-25l4-8 6-5 8 1 10 2 8 1h46l84-5z" fill="#E7AB51"/>
<path transform="translate(727,725)" d="m0 0h5l6 11 8 12 6 7 12 8 14 6 14 3h16l10-2 5-2 3 1-3 6-9 10-15 15-14 10-22 12-15 6-20 6-26 6-23 3-25 1-6-2-7-8-7-16-5-17-3-14-4-26v-14l7-3 38-8z" fill="#030402"/>
<path transform="translate(658,1177)" d="m0 0 10 1 9 3 1 2 15 141 23 213 14 131 1 2v14l-2 4h-21l-4-2-2-14h-31v-1h32l-4-31-27-240-18-159-5-42v-13l5-1v-5h2v-2z" fill="#839DAD"/>
<path transform="translate(774,1670)" d="m0 0 3 4 2 4 8 3 13 2 38 2h66l64-2 37-2 7-2v-7h24l49 1 81 3 46 3 23 3 1 4-7 2-31 3-58 3-56 2-99 2-105 1h-103l-107-1-91-2-61-2-57-3-31-3-9-2v-3l6-2 9-1h23l22-3 35-2h33l3 3 16 1 9-1 1-4 10-1 31-1h83l3 14 3 1h21l1-3 1-13z" fill="#887B97"/>
<path transform="translate(1260,598)" d="m0 0h8l11 4 8 6 13 11 4 3 7-1 3-2-1-5-4-5 1-5 4-3h9l11 6 13 10 4 6 1 7-4 6-7 6-9 7-9 11-6 5-5 1-13 1-9 4-8 7-11 8-9 3h-9l-4-1h-7l-19 7-29 14-15 8-16 8-7 4-3 16h-7l-2-4v-8-2l-1-1v-34l1-15 2-5h-5v-1l24-4 45-9 15-4 3-1-2-10-4-8v-8l3-4 10-2-4-8 1-4 6-4 12-3 6-4z" fill="#E59268"/>
<path transform="translate(386,576)" d="m0 0h2v2l4 2-1 5-6 25-4 23-3 29-1 24v15l1 36 2 29 4 36 5 31 8 32 6 20 11 28 11 20 10 14 14 14 14 9 14 6 15 3h11l20-3 20-6 23-10 2 1-3 3h-2l-2 4-14 10-20 12-19 7-15 3-8 1h-13l-18-4-9-4-11-6-13-12-7-7-11-16-9-16-7-16-7-19-8-29-6-29-5-33-3-29-2-38v-47l2-28 4-28 6-25 7-19 10-19z" fill="#050604"/>
<path transform="translate(560,660)" d="m0 0h5l1 1 7 52 13 96v8l-5 2-16 2h-6l-6-9-11-20-8-14-2-6-1-7-2-27-1-11v-24l6-22 6-17 4-2z" fill="#030402"/>
<path transform="translate(954,858)" d="m0 0 2 1-7 7-9 6-4 2-1 3-21 6-15 3-22 1h-16l-42-1-19-1 5 4 36 13 18 7 41 15 37 14 21 9 5 3 8 11 3 8 1 16v94l-5 6-2-2v-17l2-33v-51l-2-16-6-10-9-6-12-5-14-5-12-5-23-9-21-7-34-12-11-4-3-2-9-3-13-5-14-3-1-2h2v-2h2v-2h-102l-18 3 3-3 17-8 23-7 23-3h66l84 5h21l19-2 16-4z" fill="#050504"/>
<path transform="translate(1264,568)" d="m0 0 8 1 8 4 10 9 4 6 9-1 79-11h5l-4 4h-2v9l10 33 2 5-12 3-31 6-2-1 3-5-1-7-4-6-17-12-6-3h-9l-4 3 1 6 4 4-1 5-3 2-7 1-22-18-10-5-12-2v-1l-20-1 6-8 9-11 7-8z" fill="#95401C"/>
<path transform="translate(902,1569)" d="m0 0h5l-4 4-9 6-9 11-9 17-6 11-7 6-2 1h-17l-25-7-22-8-5-2-1-13v-13l6-2 27-2 63-7z" fill="#FBFCFC"/>
<path transform="translate(1066,1528)" d="m0 0 3 1 6 11v2l-6-2h-10l-11 6-10 9-12 14-7 9-5 4-3 1h-10l-13-5-16-8-16-9-12-7 8-17h31l27-2 43-5z" fill="#FBFCFC"/>
<path transform="translate(776,1657)" d="m0 0 26 2 30 3 16 3 12 5 8 3 11 1h71l61-1 2 1-1 5-7 3-62 3-39 1h-66l-38-2-17-3-5-3-3-6v-13z" fill="#1E1C1A"/>
<path transform="translate(946,1606)" d="m0 0 10 3 21 7 16 8 17 9 16 4 60 12 78 14 22 4 6 1-1 4-4 3h-11l-33-5-75-13-63-12-21-6-18-12-13-11-7-7z" fill="#1E1B1A"/>
<path transform="translate(741,702)" d="m0 0 6 1 20 9 8 7 3 5 2 5 3 12 1 2h6l6-5 1-2v-8l-5-17v-3h2l9 15 7 12 6 5h6l3-4h7l5 1 8-6 3-4v8l-6 7-12 9-12 6-8 2h-20l-11-3-16-9-5-5-6-7-7-14z" fill="#060603"/>
<path transform="translate(613,472)" d="m0 0h2l-2 5-6 7-8 11v2l14 11 8 6 7 8 14 11 7 6 11 7 13 6 15 4 13 1 10 4 9 7 3 4-3 2-4-1-5-5-10-5-14 1-2-1v2l-12 5-9 5-4 2v-2l-11 6-4 5h-2l-2 4h-2l-2 4-8 9-9 15-3 9-1 13-1 6h-3l-1-2v-14l5-14 9-15 11-13 8-8 14-11 15-8 5-2 1-2-9-2-16-8-11-7-13-10-7-7-8-6-15-11-19-9-13-4-11-2-31-2-2-1 1-4 6-1h26l16 3 17 6 6 2 12-16z" fill="#99B1CC"/>
<path transform="translate(714,881)" d="m0 0h24l61 2v3l4 2 30 11 26 10 41 15 37 14 21 9 5 3 8 11 3 8 1 16v94l-5 6-2-2v-17l2-33v-51l-2-16-6-10-9-6-12-5-14-5-12-5-23-9-21-7-34-12-11-4-3-2-9-3-13-5-14-3-1-2h2v-2h2v-2l-99-1v-1z" fill="#1B1817"/>
<path transform="translate(738,341)" d="m0 0h2l-4 20-3 9-7 11-7 7-7 5-16 6-8 2h-5l2-15 1-19 18-2 15-6 9-7h2v-2h2l2-4z" fill="#1B1817"/>
<path transform="translate(1264,568)" d="m0 0 8 1 8 4 10 9 5 8-4 9-10-1-7-2-15-1h-18l4-6 11-13 6-7z" fill="#E6936A"/>
<path transform="translate(1073,1028)" d="m0 0 3 1-1 5-12 20-10 17-8 16-11 23-8 20-5 14-2 4-3 2-4-1 3-14 11-28 10-21v-3h2l2-5 10-18 11-18 9-12z" fill="#F9FAFA"/>
<path transform="translate(673,553)" d="m0 0 10 2 18 2 10 4 9 7 3 4-3 2-4-1-5-5-10-5-14 1-2-1v2l-12 5-9 5-4 2v-2l-11 6-4 5h-2l-2 4h-2l-2 4-8 9-9 15-3 9-1 13-1 6h-3l-1-2v-14l5-14 9-15 11-13 8-8 14-11 15-8 5-2 1-2-3-1z" fill="#99B1CC"/>
<path transform="translate(850,954)" d="m0 0h5l-2 4-6 3-13 10-14 13-11 15-9 16-4 8-4 13-2 24h-8l-1-2 4-47 1-15 2-6h1l-1 43 7-20 9-16 10-13 15-15 14-11z" fill="#1B1817"/>
<path transform="translate(918,549)" d="m0 0 7 3 5 5 7 5v2h2l3 3 3 4 20 47 6 16h-4l-8-10-2-3v-12l-3-6-5-6-6-4v-2h-2l-11-22-3-3v-2l-3-1-7-8v-5z" fill="#FDFDFD"/>
<path transform="translate(722,593)" d="m0 0h3v2l-10 5-15 11-10 9-8 8-6 11-2 9 5 2 7 3-1 3-11 3h-9l-4-5 1-9 8-13 11-12 5-6 13-10 14-8z" fill="#100E0C"/>
<path transform="translate(938,1406)" d="m0 0h3l1 8-2 15-5 36-5 42-4 25-3 10-3 2 1-16 6-46 8-65 2-10z" fill="#1B1817"/>
<path transform="translate(1462,635)" d="m0 0 4 1 3 10 1 3 6 2 5 7 1 3v8l-4 7-3 2h-6l-6-4-4-8v-8l3-5 2-5-3-8z" fill="#090A08"/>
<path transform="translate(1458,500)" d="m0 0h6l7 6 3 8-1 8-3 5 2 9 2 5-7 1-1-7-4-6-6-3-4-6-1-3v-8l3-6z" fill="#0A0A09"/>
<path transform="translate(641,312)" d="m0 0 8 1 16 6 1 3-4 6-9 8h-7l-4-5-2-4v-12z" fill="#070604"/>
<path transform="translate(1076,705)" d="m0 0 2 1 4 34 3 12 3 5 7 6-1 4-5-2-8-7-4-11-2-17v-24z" fill="#98B0CB"/>
<path transform="translate(849,493)" d="m0 0 3 1 5 13 4 11 3 11 2-2 1 7h-7l-2-2-8-31z" fill="#99B1CC"/>
<path transform="translate(809,415)" d="m0 0h1l-1 8-5 12-9 16-10 14-11 12-5 1-6-10-7-10-4-5 1-2 8 9 7 11 1 5 7-4 9-11 10-15 5-9 5-11z" fill="#93AAC3"/>
<path transform="translate(658,652)" d="m0 0h2l1 3 4 3h9l11-3h5l2 3-4 3-7 3-10 1-5-1v-2h-2l-3-3-3-2z" fill="#F5F6F7"/>
<path transform="translate(737,345)" d="m0 0h1v8l-4 16-6 9h-5l2-1 1-7 4-5 1-8h-2l-1-3z" fill="#080705"/>
<path transform="translate(967,1163)" d="m0 0h1v23l-1 14-3 1-2-12v-6l1-2-1-10h2l-1-5 1-2z" fill="#242121"/>
<path transform="translate(968,1115)" d="m0 0 3 1 1 6-2 6v18l-1 10h-2v-7l-2-6-1-9 1-12z" fill="#1B1817"/>
<path transform="translate(723,379)" d="m0 0h3l-2 4-9 8-10 5-9 3h-5l1-2 8-3 3-1 2-4 6-5 7-2 3-2z" fill="#0B0906"/>
<path transform="translate(700,601)" d="m0 0h2l-1 3-11 8-4 2-2 4h-2l-2 4-6 5-1-3 2-1 1-3h2l1-5 7-8 8-5h5z" fill="#EFF0F3"/>
<path transform="translate(1151,730)" d="m0 0h3v8l-1 7h-7l-2-4v-8z" fill="#131110"/>
<path transform="translate(721,445)" d="m0 0v3l-6 15-1 4-1 16-4 1-9-5-16-12-1-2 4 2 16 11 5 3h2l3-21 5-11z" fill="#93ABC3"/>
<path transform="translate(711,251)" d="m0 0 6 1 9 14 2 4v3l-4-1-6-8v-3l-3-1-2-4-2-1z" fill="#572C24"/>
<path transform="translate(637,533)" d="m0 0 5 2v2l5 2 4 3 7 3 15 7v2l5 1v1h-6l-16-8-12-7-7-6z" fill="#94ACC5"/>
<path transform="translate(703,275)" d="m0 0h8l2 4-1 5-5 3-5-1-1-1 1-9z" fill="#180F0B"/>
<path transform="translate(778,392)" d="m0 0h10l6 4 7 8-3 3-6-2-3-5-1-4h-9z" fill="#FCFCFC"/>
<path transform="translate(772,754)" d="m0 0 6 2 2 1 10 1h26l-1 2-12 2h-13l-13-3-4-2z" fill="#CE824D"/>
<path transform="translate(649,247)" d="m0 0h9l1 8-1 2h-10v-9z" fill="#25160F"/>
<path transform="translate(792,1581)" d="m0 0h4l1 9-3 11h-2l-1-6v-13z" fill="#94AAC3"/>
<path transform="translate(948,1355)" d="m0 0h1v11l-2 7h-2l-2-6v-6z" fill="#231F1F"/>
<path transform="translate(660,227)" d="m0 0 10 1 2 1v3l-2 1h-13l2-5z" fill="#7D362E"/>
<path transform="translate(613,472)" d="m0 0h2l-2 5-6 7-7 9h-2l2-5 9-11z" fill="#8A9CB2"/>
<path transform="translate(847,714)" d="m0 0 3 1v17l-2 2-1-5h-1z" fill="#90392E"/>
<path transform="translate(850,717)" d="m0 0 2 3 3 5v2h6v1l-11 3-1-3z" fill="#9E4827"/>
<path transform="translate(670,401)" d="m0 0h11v3l-9 3-4-1z" fill="#F7F9FA"/>
<path transform="translate(919,1548)" d="m0 0 5 2v8l-3 2-2-3z" fill="#221F1F"/>
<path transform="translate(972,1116)" d="m0 0h1l-1 19-1 12h-1l-1-11v-9l2-5v-5z" fill="#58565A"/>
<path transform="translate(810,758)" d="m0 0h6l-1 2-12 2h-12v-2l16-1z" fill="#DF955B"/>
<path transform="translate(781,396)" d="m0 0h8v6l-4 1-4-5z" fill="#191410"/>
<path transform="translate(752,451)" d="m0 0 5 4 10 14-1 3-3-4-7-10-4-5z" fill="#92AAC2"/>
<path transform="translate(683,465)" d="m0 0 4 2 16 11 2 3-5-2-16-12z" fill="#8FA8BE"/>
<path transform="translate(983,806)" d="m0 0 5 2 2 2-9 4v-7z" fill="#F9FAFA"/>
<path transform="translate(661,442)" d="m0 0 5 5 12 13h-3l-7-7-7-9z" fill="#99B1CC"/>
<path transform="translate(663,550)" d="m0 0 7 1 3 1v2l5 1v1h-6l-9-4z" fill="#8DA6BC"/>
<path transform="translate(778,392)" d="m0 0h10l3 3-3 1h-9z" fill="#F2F4F6"/>
<path transform="translate(674,405)" d="m0 0 4 1-3 1v3l-4 2h-3l1-4z" fill="#45342E"/>
<path transform="translate(637,533)" d="m0 0 5 2v2l5 2 4 4-5-1-9-7z" fill="#8CA5BA"/>
<path transform="translate(794,448)" d="m0 0 1 3-10 14h-2l2-4z" fill="#8CA2B8"/>
<path transform="translate(738,341)" d="m0 0h2l-1 5-4 2-3 2 2-4zm-8 9 2 1-2 1zm-2 2 2 1-4 3z" fill="#4C2718"/>
<path transform="translate(679,881)" d="m0 0 9 2v1l-18 3 3-3z" fill="#1B1817"/>
<path transform="translate(1313,614)" d="m0 0 2 1-1 5-3 2-7 1-2-3h7l2-1 1-4z" fill="#B05A3F"/>
<path transform="translate(849,493)" d="m0 0 3 1 2 9-1 2h-2z" fill="#93ABC4"/>
<path transform="translate(755,746)" d="m0 0 5 3v2l5 2 1 2-6-1v-2l-4-2v-2l-2-1z" fill="#943E1A"/>
<path transform="translate(756,741)" d="m0 0 4 2v2l5 2 4 4-2 1-8-6-3-3z" fill="#CB8A4B"/>
<path transform="translate(1156,728)" d="m0 0h1v10l-3 3v-7z" fill="#F1F4F6"/>
<path transform="translate(671,628)" d="m0 0 1 3-5 7h-2l1-4 2-4z" fill="#EEF0F3"/>
<path transform="translate(392,576)" d="m0 0 3 1 2 3v3l-4-1-2-2z" fill="#F9FAFB"/>
<path transform="translate(604,483)" d="m0 0 2 3-6 7h-2l2-5z" fill="#8DA6BC"/>
</svg>
