<?xml version="1.0" encoding="UTF-8"?>
<svg version="1.1" viewBox="0 0 1600 1600" width="60px" height="60px" xmlns="http://www.w3.org/2000/svg" fill="none" stroke="black"  stroke-width="90"    >
<path transform="translate(378,257)" d="m0 0h16l12 4 13 7 6 5 7 10 6 12 4 11v10l-5 13-6 10-8 10-9 9-5 6-8 7-10 10-8 7-3 4h-2l-2 4-9 9-7 9h-2l-2 4-7 8-9 11-7 9-11 15-7 11-13 19-8 14-10 18-13 25-10 23-8 19-10 29-8 27-10 40-5 30-4 40-2 37v23l2 32 4 35 5 30 7 29 10 36 10 28 11 27 14 30 13 24 11 18 9 14 11 16 13 18 14 17 12 14 9 11 7 7 6 7 2 1v2l4 2 24 24 2 1v2l4 2 12 14 8 13 4 12v8l-3 12-7 14-9 11-10 8-8 4-10 2h-18l-12-4-11-7-15-13-8-7-13-12-27-27-9-11-9-10-9-11-11-13-10-13-10-14-24-36-15-26-7-12-8-16-14-29-11-27-11-29-14-46-8-33-7-39-5-36-3-39v-57l4-51 5-37 7-37 10-39 7-22 9-27 8-20 10-24 14-30 12-22 11-19 11-18 19-28 10-14 9-12 8-10 13-16 11-13 9-10 5-6h2l2-4 4-4h2l2-4 30-28 17-13 8-5z"/>
<path transform="translate(1207,256)" d="m0 0 13 1 15 6 14 9 14 12 13 12 12 11 18 18v2h2l7 8 24 28 10 13 11 15 10 14 15 23 10 16 12 21 12 23 8 16 12 27 13 34 9 27 8 28 9 39 6 33 4 31 3 32 2 37v19l-2 38-5 45-6 38-6 27-9 34-7 22-8 24-16 40-16 34-12 22-10 18-8 13-12 18-13 19-12 16-13 17-22 26-12 13-11 11-5 6-7 6h-2v2l-8 7-5 5h-2l-2 4h-2l-2 4-18 13-12 6-10 3h-11l-12-3-16-8-11-11-6-12-5-16-1-9 6-16 7-11 13-14h2l2-4h2l2-4 8-7 13-13 8-7 9-10 8-8 8-10 5-5 8-10 10-13 10-14 8-12 11-16 9-15 9-16 13-25 13-29 15-40 10-35 7-29 6-35 4-35 2-31v-36l-3-45-4-30-6-32-7-28-9-31-6-18-14-35-14-30-15-28-16-26-13-19-11-15-11-14-11-13-9-11-15-16-11-11-8-7-26-26-11-15-6-13-2-7 1-9 6-16 8-13 9-8 14-8z"/>
<path transform="translate(515,420)" d="m0 0h14l13 3 13 7 11 10 7 10 5 16v16l-3 10-6 10-11 13-7 7-5 6-8 7-7 7-7 8-13 14-18 24-11 18-12 22-8 16-12 28-9 29-7 28-4 27-2 22v43l3 30 5 28 7 26 10 30 11 25 13 25 12 19 13 18 11 14 11 12 7 8 31 31 9 11 4 7 4 9 1 5v12l-5 15-7 12-10 10-9 6-9 4-12 3h-7l-16-5-14-9-13-11-10-9-21-21-9-11-8-9-11-14-10-13-14-21-11-18-13-24-8-16-12-28-13-37-10-40-6-35-3-34v-53l2-26 6-37 7-30 7-25 5-15 7-19 15-33 10-19 9-16 13-20 6-9 12-17 9-12 12-13 7-8 14-15h2v-2h2v-2h2l2-4 10-9 11-9 11-7 10-5z"/>
<path transform="translate(1066,419)" d="m0 0h11l15 4 15 8 13 10 17 16 11 11 7 8 12 14 10 12 12 16 20 30 14 25 9 17 11 25 9 24 9 27 10 42 5 31 3 32v53l-2 27-3 25-6 29-9 35-8 23-11 29-15 30-12 22-8 13-7 10-4 6-9 13-7 9-11 14-11 12-2 3h-2l-2 4-24 24-8 7-13 9-10 6-12 5h-17l-3-2-9-2-14-10-9-10-7-12-3-16 1-11 3-11 10-16 14-15 7-7 8-7 11-11 9-11 6-7h2l2-4 6-8 10-15 9-14 13-24 12-26 9-25 10-38 4-23 2-18 1-18v-42l-2-24-5-29-7-28-11-33-15-33-13-24-14-21-12-16-9-11-11-12-23-23v-2h-2l-7-8-8-9-7-11-3-8-1-13 4-17 5-9 9-11 9-7 12-6z"/>
<path transform="translate(660,582)" d="m0 0 13 2 14 5 9 6 6 5 9 13 5 12 2 9v8l-2 9-9 15-9 11-10 12h-2l-2 4-11 12-10 15-8 16-9 27-4 23-1 9v9l3 24 6 21 6 16 7 13 8 12 9 12 14 15 10 11 9 13 4 11 1 3v13l-5 13-6 11-9 11-11 7-16 7-10 2-8-3-10-4-10-6-12-9-15-14-9-10-8-10-11-15-8-13-10-18-9-20-8-21-7-26-3-16-2-24v-18l2-24 4-23 9-32 9-21 8-16 9-16 10-15 9-11 12-15h2l2-4 12-12 14-11 14-7 5-2z"/>
<path transform="translate(926,583)" d="m0 0h15l18 6 12 7 9 7 20 20 9 12 10 13 13 21 8 15 10 23 6 18 7 27 4 26v38l-2 18-5 26-8 28-15 33-12 20-8 12-9 12-11 13-13 13-11 10-13 8-12 6-9 4h-5l-9-3-18-8-8-6v-2h-2l-7-10-4-8-4-11-1-5v-10l4-13 10-16 3-4h2l2-4 18-18 8-10 12-18 8-20 6-21 3-19v-22l-2-19-5-19-10-25-8-14-12-16-9-10-12-14-8-11-8-16-2-8 1-11 5-13 5-9 9-10 9-7 12-5z"/>
<path transform="translate(798,746)" d="m0 0 19 3 13 7 10 9 6 8 4 8 2 6 1 17-2 10-7 14-8 9-14 10-14 5-9 1-17-3-12-6-12-11-7-9-5-15-1-6v-8l2-10 9-17 15-15 9-4z"/>
</svg>
