<?xml version="1.0" encoding="UTF-8"?>
<svg version="1.1" viewBox="0 0 1600 1600" width="60px" height="60px" xmlns="http://www.w3.org/2000/svg">
<path transform="translate(773,160)" d="m0 0h37l24 2 20 3 21 6 18 8 17 9 15 11 10 9 7 7 10 13 4 4v2l4 2 3 2 25 3 21 7 16 8 11 7 14 11 10 10 11 14 9 13 12 22 9 23 7 24 4 17 5 32 2 26v24l-2 31-4 24-5 20-7 20-7 17-1 7 7 8 9 10 5 10 2 8v27l-3 22-7 21-8 17-8 12-8 6-22 10-3 4-1 19-3 5-22 11-23 11-19 10-13 8-27 18-14 10-16 13-11 10-8 7-30 30-9 11-11 13-10 14-9 12-12 19-8 14-12 22-13 27-11 27-9 28-7 28-7 33-4 29-1 13v54l3 32 4 26 8 36 9 32 15 40 9 18v4l-4 1-500 1h-98l-32-1-2-2v-16l3-31 6-36 8-29 8-21 8-16 15-24 12-16 12-13 19-19 11-9 14-10 22-14 30-16 21-9 23-9 52-17 39-12 44-14 40-14 23-10 23-13 16-12 10-9 8-10 9-17 3-16 1-76-1-19-6-9-14-12-7-8-9-10-11-14-12-16-12-19-12-23-11-26-4-17-3-6-5-4-13-5-10-7-7-10-7-14-5-14-7-27-2-13 1-17 4-13 6-11 7-9 6-7v-7l-10-24-7-24-5-23-3-25v-43l2-25 4-28 6-26 7-23 6-16 9-20 15-27 11-16 12-14 7-8 12-12 15-14 15-11 18-11 23-12 19-8 25-8 25-6 26-4z" fill="#fff"/>
<path transform="translate(1217,853)" d="m0 0h22l33 2 32 5 28 7 29 10 25 11 25 13 19 12 17 12 13 10 11 9 12 11 22 22 9 11 12 15 16 25 9 15 12 23 12 28 9 25 7 24 8 37 1 4v85l-8 35-10 36-10 26-9 20-12 24-11 18-11 16-10 14-13 16-14 15-13 12-11 10-14 11-17 12-21 13-29 15-25 11-28 10-25 7-31 7-15 3h-75l-31-7-30-8-40-13-29-13-19-10-19-12-13-9-14-11-14-12-13-12-14-14-7-8-8-9-11-14-12-17-16-27-14-28-10-26-9-27-7-30-4-24-2-28v-29l2-27 4-27 7-29 5-17 12-31 12-25 9-17 13-21 8-11 13-17 13-15 14-15 8-8 8-7 10-9 17-13 14-10 28-17 27-13 23-9 25-8 27-6 32-5zm171 213-13 1-11 4-13 9-7 7-8 7-121 121-8 7-10 9-9 10-7 8-5 6-4-2-9-7-31-31-8-7-7-8-8-7-12-10-15-8-14-3-12 1-17 7-9 7-7 8-8 17-2 7v11l3 12 7 13 9 11 11 12 26 26 1 2h2l2 4 54 54 12 9 18 10 11 3h10l10-3 15-8 11-9 10-9 15-15 4-5 8-7 7-8 8-7 7-8 8-7 7-8 9-8 7-8 7-6 7-8 8-7 7-8 70-70 8-7 14-16 7-11 4-9 2-10v-8l-3-14-9-16-12-12-13-6-10-2z" fill="#fff"/>
</svg>
